<?xml version="1.0" encoding="UTF-8"?>
<svg id="Layer_2" data-name="Layer 2" xmlns="http://www.w3.org/2000/svg" viewBox="0 0 1000 1000">
  <defs>
    <style>
      .cls-1 {
        opacity: .5;
      }

      .cls-2 {
        fill: #a7d0f9;
        stroke-width: 0px;
      }

      .cls-3 {
        opacity: .75;
      }

      .cls-4 {
        opacity: .25;
      }
    </style>
  </defs>
  <g class="cls-4">
    <path class="cls-2" d="m409.91,494.63c0-.14.02-.28.02-.42,0-.1,0-.2.01-.3-.01.24-.02.48-.03.73Z"/>
    <path class="cls-2" d="m912.79,761.62h-99.77l-17.59,68.73c-6.76,26.41-30.56,44.89-57.81,44.89h-452.47c-27.28,0-51.07-18.48-57.82-44.89l-38.52-150.54c-1.34,21.92-10.77,41.66-25.36,56.26-15.79,15.79-37.58,25.54-61.66,25.54h-14.57c-24.08,0-45.88,9.76-61.66,25.54-15.79,15.77-25.54,37.57-25.54,61.65,0,48.16,39.05,87.21,87.21,87.21h825.58c24.08,0,45.88-9.76,61.66-25.54,15.79-15.79,25.54-37.58,25.54-61.66,0-48.16-39.05-87.19-87.21-87.19Z"/>
    <path class="cls-2" d="m411.93,478.01c.03-.14.06-.28.09-.42.01-.06.02-.13.04-.19-.04.2-.09.41-.13.61Z"/>
    <path class="cls-2" d="m912.79,412.8h-84.44c-48.16,0-87.19-39.04-87.19-87.21,0-3.3.2-6.56.56-9.77h-118.85l-34.04,30.21c-7.43,6.59-19.17,1.32-19.17-8.62v-21.59h-37.1c-12.65,0-22.91-10.26-22.91-22.91v-133.31c0-12.65,10.26-22.91,22.91-22.91h232.91c12.65,0,22.91,10.26,22.91,22.91v88.51c11.98-6.19,25.56-9.71,39.98-9.71h84.44c24.08,0,45.88-9.76,61.66-25.54,15.79-15.79,25.54-37.58,25.54-61.66,0-48.16-39.05-87.21-87.21-87.21H87.21c-24.08,0-45.88,9.76-61.66,25.54C9.76,105.31,0,127.11,0,151.19c0,48.16,39.05,87.21,87.21,87.21h93.51c48.16,0,87.21,39.04,87.21,87.19,0,24.08-9.76,45.89-25.54,61.66-15.79,15.79-37.58,25.54-61.66,25.54h-93.51c-24.08,0-45.88,9.76-61.66,25.54-15.79,15.77-25.54,37.58-25.54,61.66,0,48.16,39.05,87.19,87.21,87.19h14.57c31.04,0,58.28,16.24,73.73,40.67l-7.08-27.68-10.35-40.44h-17.71c-15.4,0-27.89-12.49-27.89-27.89v-66.43c0-15.39,12.48-27.89,27.89-27.89h280.71l-100.72-167.97c-5.7-9.53-2.61-21.87,6.91-27.58l43.27-25.94c9.52-5.7,21.87-2.62,27.57,6.91l104.64,174.51c.09,0,.18,0,.27-.02,1.21-.1,2.42-.18,3.64-.23.32-.01.63-.02.95-.04,1.16-.04,2.32-.07,3.48-.07.09,0,.19,0,.28,0,.34,0,.67.01,1.01.02.59,0,1.18.01,1.77.03.45.01.9.03,1.35.05.5.02,1,.04,1.5.07.46.03.92.06,1.39.09.48.03.97.07,1.45.11.46.04.92.08,1.38.12.48.05.97.1,1.45.15.45.05.9.1,1.35.15.52.06,1.04.14,1.56.21.4.06.81.11,1.21.17.87.13,1.74.28,2.6.43.39.07.79.15,1.18.23.52.1,1.03.2,1.55.3.42.09.85.18,1.27.28.48.11.96.21,1.44.33.43.1.85.2,1.27.31.48.12.95.24,1.43.37.41.11.83.22,1.24.34.5.14.99.28,1.48.43.38.11.77.22,1.15.34.65.2,1.29.41,1.93.62.41.13.81.27,1.21.41.64.22,1.29.45,1.92.68.35.13.7.27,1.06.4.5.19,1,.38,1.5.58.37.15.73.3,1.1.45.48.2.96.4,1.43.6.36.16.72.31,1.08.47.49.22.98.44,1.47.67.33.15.66.31.99.46.57.27,1.14.55,1.7.84.24.12.48.23.72.36.79.41,1.58.82,2.36,1.25.21.11.42.23.63.35.58.32,1.16.65,1.74.98.28.16.55.32.82.49.51.3,1.02.61,1.52.92.28.17.56.35.84.52.51.32,1.01.65,1.52.97.25.17.51.33.76.5.56.38,1.12.76,1.68,1.15.18.13.36.25.55.38,1.5,1.06,2.97,2.16,4.4,3.3.13.1.26.21.39.32.58.47,1.16.94,1.73,1.41.17.14.34.29.51.43.54.46,1.08.92,1.61,1.39.16.14.32.28.48.43.57.51,1.13,1.02,1.69,1.54.11.1.21.2.32.29,2.05,1.93,4.02,3.95,5.9,6.05.04.05.08.09.12.14.58.65,1.16,1.31,1.72,1.98.06.07.12.14.18.21.57.67,1.13,1.35,1.68,2.04.03.04.06.07.09.11.59.74,1.17,1.48,1.74,2.24h289.9c15.4,0,27.89,12.49,27.89,27.89v66.43c0,15.39-12.48,27.89-27.89,27.89h-17.71l-7.03,27.45h55.14c24.08,0,45.88-9.76,61.66-25.54,15.79-15.77,25.54-37.57,25.54-61.65,0-48.17-39.05-87.21-87.21-87.21Z"/>
    <path class="cls-2" d="m413.95,469.91c.05-.17.1-.33.15-.49.02-.06.03-.12.05-.17-.07.22-.14.44-.21.67Z"/>
    <path class="cls-2" d="m412.78,474.31s.01-.04.02-.07c.05-.21.1-.42.15-.63-.06.23-.11.46-.16.69Z"/>
  </g>
  <g>
    <g class="cls-1">
      <path class="cls-2" d="m864.68,559.75l-10.35,40.44-58.9,230.17c-6.76,26.41-30.56,44.89-57.81,44.89h-452.47c-27.28,0-51.07-18.48-57.82-44.89l-58.9-230.17-10.35-40.44h272.19c18.53,24.57,47.96,40.45,81.11,40.45s62.58-15.88,81.11-40.45h272.19Z"/>
    </g>
    <g class="cls-1">
      <path class="cls-2" d="m509.83,600.18H168.43l-10.35-40.44h272.19c18.24,24.18,47.04,39.95,79.56,40.44Z"/>
    </g>
    <g class="cls-1">
      <path class="cls-2" d="m864.68,559.75l-10.35,40.44h-341.4c32.52-.49,61.32-16.25,79.56-40.44h272.19Z"/>
    </g>
    <g class="cls-1">
      <rect class="cls-2" x="484.65" y="627.52" width="53.46" height="189.55" rx="19.66" ry="19.66"/>
      <rect class="cls-2" x="325.53" y="627.52" width="53.46" height="189.55" rx="19.66" ry="19.66" transform="translate(-111.33 65.88) rotate(-9.23)"/>
      <rect class="cls-2" x="643.76" y="627.52" width="53.46" height="189.55" rx="19.66" ry="19.66" transform="translate(1216.42 1542.82) rotate(-170.77)"/>
    </g>
    <path class="cls-2" d="m737.62,878.24h-452.47c-28.66,0-53.63-19.39-60.73-47.15l-70.2-274.35h277.55l.9,1.19c18.46,24.48,46.6,38.79,77.21,39.25.53.01,1.03,0,1.56,0,.48,0,.95,0,1.43,0,30.62-.46,58.76-14.76,77.22-39.25l.9-1.19h277.55l-70.2,274.35c-7.1,27.76-32.07,47.14-60.72,47.14ZM161.94,562.75l68.29,266.86c6.42,25.1,29,42.63,54.92,42.63h452.47c25.91,0,48.49-17.53,54.91-42.63l68.29-266.86h-266.85c-19.59,25.24-49.03,39.96-81,40.44-1.05.02-2.13.02-3.2,0-31.96-.48-61.39-15.2-80.99-40.44H161.94Z"/>
    <g>
      <rect class="cls-2" x="511.38" y="839.45" width="80.85" height="6"/>
      <rect class="cls-2" x="645.69" y="839.45" width="145.94" height="6"/>
    </g>
    <g class="cls-3">
      <path class="cls-2" d="m910.27,465.43v66.43c0,15.39-12.48,27.89-27.89,27.89h-289.9c12.84-17,20.44-38.16,20.44-61.1s-7.61-44.1-20.44-61.1h289.9c15.4,0,27.89,12.49,27.89,27.89Z"/>
    </g>
    <g class="cls-3">
      <path class="cls-2" d="m409.83,498.64c0,22.94,7.61,44.1,20.44,61.1H140.37c-15.4,0-27.89-12.49-27.89-27.89v-66.43c0-15.39,12.48-27.89,27.89-27.89h289.9c-12.84,17-20.44,38.16-20.44,61.1Z"/>
    </g>
    <path class="cls-2" d="m882.39,562.75h-295.93l3.63-4.81c12.98-17.19,19.84-37.69,19.84-59.29s-6.86-42.1-19.84-59.29l-3.63-4.81h295.93c17.03,0,30.89,13.86,30.89,30.89v66.43c0,17.03-13.86,30.89-30.89,30.89Zm-284.08-6h284.08c13.72,0,24.89-11.16,24.89-24.89v-66.43c0-13.72-11.16-24.89-24.89-24.89h-284.08c11.55,17.2,17.62,37.17,17.62,58.1s-6.07,40.9-17.62,58.1Z"/>
    <path class="cls-2" d="m436.29,562.75H140.37c-17.03,0-30.89-13.86-30.89-30.89v-66.43c0-17.03,13.85-30.89,30.89-30.89h295.93l-3.63,4.81c-12.98,17.19-19.84,37.69-19.84,59.29s6.86,42.1,19.84,59.29l3.63,4.81Zm-295.93-122.2c-13.72,0-24.89,11.16-24.89,24.89v66.43c0,13.72,11.16,24.89,24.89,24.89h284.08c-11.55-17.2-17.62-37.17-17.62-58.1s6.07-40.9,17.62-58.1H140.37Z"/>
    <g class="cls-1">
      <path class="cls-2" d="m502.75,397.46c-29.6,2.49-55.58,17.67-72.48,40.08-1.74,2.31-3.38,4.68-4.92,7.13l-105-175.1c-5.7-9.53-2.61-21.87,6.91-27.58l43.27-25.94c9.52-5.7,21.87-2.62,27.57,6.91l104.64,174.51Z"/>
    </g>
    <path class="cls-2" d="m425.3,450.41l-107.51-179.29c-6.54-10.92-2.98-25.14,7.94-31.7l43.27-25.94c5.29-3.17,11.5-4.09,17.49-2.6,5.99,1.5,11.03,5.24,14.2,10.54l107.12,178.63-4.8.4c-27.82,2.34-53.46,16.52-70.34,38.9-1.68,2.23-3.29,4.56-4.77,6.92l-2.6,4.14Zm-44.46-234.23c-3.06,0-6.07.83-8.76,2.44l-43.27,25.94c-8.08,4.85-10.72,15.38-5.88,23.47l102.55,171.02c.78-1.12,1.58-2.23,2.4-3.31,16.94-22.47,42.21-37.14,69.89-40.76l-102.23-170.48c-2.35-3.92-6.08-6.69-10.51-7.8-1.39-.35-2.79-.52-4.18-.52Z"/>
    <g class="cls-1">
      <path class="cls-2" d="m612.93,498.64c0,22.94-7.61,44.1-20.44,61.1-18.24,24.18-47.04,39.95-79.56,40.44-.52.01-1.03.01-1.55.01s-1.03,0-1.55-.01c-32.52-.49-61.32-16.25-79.56-40.44-12.84-17-20.44-38.16-20.44-61.1,0-19.83,5.68-38.33,15.53-53.97,1.54-2.45,3.18-4.82,4.92-7.13,16.9-22.41,42.89-37.6,72.48-40.08,2.84-.24,5.72-.36,8.63-.36,33.15,0,62.58,15.88,81.11,40.45,12.84,17,20.44,38.16,20.44,61.1Z"/>
    </g>
    <g class="cls-1">
      <path class="cls-2" d="m563.65,498.64c0,28.87-23.4,52.27-52.27,52.27s-50.96-22.11-52.21-49.85c-.04-.8-.06-1.61-.06-2.42,0-28.87,23.4-52.27,52.27-52.27,8.77,0,17.03,2.15,24.28,5.98,16.64,8.74,27.99,26.2,27.99,46.29Z"/>
    </g>
    <path class="cls-2" d="m511.38,553.92c-30.48,0-55.27-24.79-55.27-55.27s24.79-55.27,55.27-55.27,55.27,24.79,55.27,55.27-24.79,55.27-55.27,55.27Zm0-104.54c-27.17,0-49.27,22.1-49.27,49.27s22.1,49.27,49.27,49.27,49.27-22.1,49.27-49.27-22.1-49.27-49.27-49.27Z"/>
    <path class="cls-2" d="m511.38,603.19c-57.65,0-104.55-46.9-104.55-104.55s46.9-104.55,104.55-104.55,104.55,46.9,104.55,104.55-46.9,104.55-104.55,104.55Zm0-203.09c-54.34,0-98.55,44.21-98.55,98.55s44.21,98.55,98.55,98.55,98.55-44.21,98.55-98.55-44.21-98.55-98.55-98.55Z"/>
    <rect class="cls-2" x="197.5" y="526.46" width="173.93" height="6"/>
    <rect class="cls-2" x="645.69" y="526.46" width="59.02" height="6"/>
    <g>
      <g class="cls-1">
        <path class="cls-2" d="m765.46,136.68h-232.91c-12.65,0-22.91,10.26-22.91,22.91v133.31c0,12.65,10.26,22.91,22.91,22.91h37.1v21.59c0,9.94,11.73,15.21,19.17,8.62l34.04-30.21h142.59c12.65,0,22.91-10.26,22.91-22.91v-133.31c0-12.65-10.26-22.91-22.91-22.91Z"/>
      </g>
      <path class="cls-2" d="m581.23,351.96c-2.02,0-4.06-.43-6.01-1.3-5.28-2.38-8.57-7.45-8.57-13.24v-18.59h-34.1c-14.29,0-25.91-11.62-25.91-25.91v-133.31c0-14.29,11.62-25.91,25.91-25.91h232.91c14.29,0,25.91,11.62,25.91,25.91v133.31c0,14.29-11.62,25.91-25.91,25.91h-141.45l-33.19,29.45c-2.74,2.43-6.13,3.69-9.58,3.69Zm-48.68-212.28c-10.98,0-19.91,8.93-19.91,19.91v133.31c0,10.98,8.93,19.91,19.91,19.91h40.1v24.59c0,3.45,1.88,6.36,5.03,7.77,3.15,1.41,6.57.89,9.15-1.4l34.9-30.96h143.73c10.98,0,19.91-8.93,19.91-19.91v-133.31c0-10.98-8.93-19.91-19.91-19.91h-232.91Z"/>
      <path class="cls-2" d="m688.19,233.64c0,15.18-3.41,26.9-10.23,35.13-6.82,8.24-16.43,12.35-28.84,12.35s-22.19-4.14-29.03-12.43c-6.85-8.29-10.27-19.97-10.27-35.05v-20.54c0-15.18,3.41-26.89,10.23-35.13,6.82-8.23,16.46-12.35,28.91-12.35s22.11,4.14,28.95,12.43c6.85,8.29,10.27,20,10.27,35.13v20.46Zm-26.02-23.86c0-8.08-1.06-14.12-3.17-18.11-2.11-3.99-5.46-5.98-10.04-5.98s-7.73,1.85-9.77,5.56c-2.03,3.71-3.13,9.32-3.28,16.83v28.72c0,8.39,1.05,14.53,3.16,18.41,2.11,3.89,5.46,5.83,10.04,5.83s7.69-1.89,9.81-5.68c2.11-3.78,3.19-9.72,3.24-17.8v-27.8Z"/>
    </g>
    <g>
      <g>
        <path class="cls-2" d="m375.03,413.43c-.06,0-.12,0-.18,0-1.99-.12-3.99-.24-6-.37-1.65-.1-2.91-1.53-2.8-3.18.11-1.65,1.54-2.9,3.18-2.8,2,.13,3.99.25,5.98.37,1.65.1,2.91,1.52,2.81,3.18-.1,1.59-1.42,2.82-2.99,2.82Z"/>
        <path class="cls-2" d="m356.89,412.2c-.08,0-.16,0-.24,0-4.42-.35-8.42-.73-12.22-1.14-1.65-.18-2.84-1.66-2.65-3.31.18-1.65,1.66-2.84,3.31-2.65,3.74.41,7.68.78,12.04,1.13,1.65.13,2.88,1.58,2.75,3.23-.12,1.57-1.44,2.76-2.99,2.76Zm-24.21-2.71c-.15,0-.31-.01-.46-.04-4.23-.65-8.32-1.39-12.16-2.21-1.62-.35-2.65-1.94-2.31-3.56s1.94-2.65,3.56-2.31c3.72.8,7.7,1.52,11.81,2.15,1.64.25,2.76,1.78,2.51,3.42-.23,1.48-1.51,2.54-2.96,2.54Zm-23.8-5.15c-.28,0-.56-.04-.84-.12-4.09-1.2-8.05-2.55-11.78-4.02-1.54-.61-2.3-2.35-1.69-3.89.61-1.54,2.35-2.3,3.89-1.69,3.56,1.4,7.35,2.7,11.27,3.84,1.59.47,2.5,2.13,2.04,3.72-.38,1.31-1.58,2.16-2.88,2.16Zm-22.6-8.98c-.47,0-.94-.11-1.39-.34-3.28-1.72-6.47-3.6-9.48-5.6-.43-.28-.85-.57-1.27-.86-1.36-.94-1.71-2.81-.77-4.17.94-1.36,2.81-1.71,4.17-.77.39.27.79.54,1.19.8,2.83,1.88,5.84,3.66,8.94,5.28,1.47.77,2.04,2.58,1.27,4.05-.54,1.02-1.58,1.61-2.66,1.61Zm-19.97-13.84c-.72,0-1.44-.26-2.01-.77-3.05-2.76-6-5.77-8.78-8.94-1.09-1.25-.96-3.14.29-4.23,1.25-1.09,3.14-.96,4.23.29,2.62,3,5.4,5.84,8.28,8.44,1.23,1.11,1.32,3.01.21,4.24-.59.66-1.41.99-2.23.99Zm-16-18.3c-.95,0-1.89-.45-2.47-1.3-2.38-3.44-4.57-7.04-6.52-10.69-.78-1.46-.23-3.28,1.23-4.06,1.46-.78,3.28-.23,4.06,1.23,1.84,3.45,3.91,6.85,6.16,10.1.94,1.36.6,3.23-.76,4.17-.52.36-1.11.53-1.7.53Zm-11.43-21.46c-1.2,0-2.34-.73-2.8-1.92-1.54-3.97-2.8-8.01-3.77-12-.39-1.61.6-3.23,2.21-3.62,1.62-.39,3.23.6,3.62,2.21.9,3.73,2.09,7.51,3.53,11.23.6,1.55-.17,3.28-1.71,3.88-.36.14-.72.2-1.08.2Zm-6.35-18.58h0c-.53,0-1.06,0-1.59-.03-1.66-.05-2.96-1.44-2.9-3.1.05-1.62,1.38-2.9,3-2.9h0c-.43-.47-.71-1.08-.77-1.76-.19-2.21-.29-4.43-.29-6.6,0-2.04.09-4.08.25-6.07.14-1.65,1.59-2.88,3.24-2.74,1.65.14,2.88,1.59,2.74,3.24-.15,1.82-.23,3.7-.23,5.57,0,2,.09,4.05.27,6.09.07.83-.2,1.62-.71,2.2,2.26-.15,4.62-.45,7.04-.91,1.63-.31,3.2.76,3.51,2.38s-.76,3.2-2.38,3.51c-3.89.74-7.65,1.12-11.18,1.12Zm-13.43-2.22c-.34,0-.68-.06-1.02-.18-3.87-1.39-7.73-3.38-11.46-5.9-1.37-.93-1.73-2.79-.81-4.17.93-1.37,2.79-1.73,4.17-.81,3.31,2.24,6.72,4,10.12,5.22,1.56.56,2.37,2.28,1.81,3.84-.44,1.22-1.59,1.99-2.82,1.99Zm35.78-2.05c-1.24,0-2.4-.78-2.83-2.01-.54-1.56.28-3.27,1.85-3.82,4.1-1.43,7.56-2.98,10.57-4.74,1.43-.84,3.27-.35,4.1,1.08.84,1.43.35,3.27-1.08,4.1-3.35,1.96-7.15,3.67-11.62,5.23-.33.11-.66.17-.99.17Zm-55.95-11.25c-.76,0-1.52-.29-2.1-.86-2.83-2.77-5.64-5.92-8.35-9.38-1.02-1.3-.8-3.19.5-4.21,1.3-1.03,3.19-.8,4.21.5,2.56,3.25,5.2,6.22,7.84,8.81,1.18,1.16,1.2,3.06.04,4.24-.59.6-1.36.9-2.14.9Zm76.45-1.38c-.69,0-1.39-.24-1.96-.73-1.25-1.08-1.39-2.98-.31-4.23l.21-.25c2.25-2.68,3.88-5.87,4.71-9.23.4-1.61,2.03-2.59,3.64-2.19,1.61.4,2.59,2.03,2.19,3.64-1.06,4.24-3.11,8.26-5.94,11.63l-.27.32c-.59.69-1.43,1.04-2.27,1.04Zm-39.97-12.26c-.29,0-.59-.04-.89-.14-1.58-.49-2.47-2.17-1.98-3.75,1.34-4.31,3.28-8.26,5.77-11.75.96-1.35,2.84-1.66,4.19-.7,1.35.96,1.66,2.84.7,4.19-2.12,2.96-3.77,6.34-4.92,10.04-.4,1.29-1.58,2.11-2.86,2.11Zm-51.62-5.38c-.99,0-1.95-.49-2.53-1.38-2.14-3.32-4.26-6.91-6.31-10.67-.79-1.45-.26-3.28,1.2-4.07,1.45-.79,3.28-.26,4.07,1.2,1.98,3.63,4.03,7.09,6.09,10.29.9,1.39.49,3.25-.9,4.15-.5.32-1.06.48-1.62.48Zm96.75-5.06c-1.23,0-2.38-.76-2.82-1.98-.23-.64-.52-1.27-.84-1.87-1.24-2.31-3.12-4.21-5.58-5.64-1.43-.83-1.92-2.67-1.09-4.1s2.67-1.92,4.1-1.09c3.39,1.97,6.1,4.73,7.85,7.98.46.86.86,1.75,1.19,2.67.57,1.56-.24,3.28-1.79,3.84-.34.12-.68.18-1.02.18Zm-30.97-8.73c-1.02,0-2.02-.52-2.58-1.46-.85-1.42-.39-3.26,1.03-4.11,1.07-.64,2.17-1.21,3.3-1.69,2.99-1.29,6.37-2,9.77-2.05,1.66,0,3.02,1.3,3.04,2.96.02,1.66-1.3,3.02-2.96,3.04-2.62.03-5.2.57-7.47,1.55-.88.38-1.76.83-2.6,1.34-.48.29-1.01.43-1.54.43Zm-77.5-7.56c-1.12,0-2.2-.63-2.71-1.72-1.7-3.6-3.38-7.39-5-11.27-.64-1.53.09-3.29,1.62-3.92,1.53-.64,3.29.09,3.92,1.62,1.58,3.79,3.22,7.5,4.88,11.01.71,1.5.07,3.29-1.43,3.99-.41.2-.85.29-1.28.29Zm-9.38-22.49c-1.22,0-2.37-.75-2.82-1.96-1.39-3.78-2.75-7.69-4.03-11.62-.51-1.57.35-3.27,1.92-3.78,1.57-.52,3.27.35,3.78,1.92,1.26,3.86,2.59,7.7,3.96,11.41.57,1.55-.22,3.28-1.78,3.85-.34.13-.69.19-1.04.19Z"/>
        <path class="cls-2" d="m155.1,221.57c-1.3,0-2.5-.86-2.88-2.17-.58-2.02-1.12-3.97-1.62-5.83-.43-1.6.52-3.25,2.12-3.67,1.6-.43,3.24.52,3.67,2.12.49,1.82,1.02,3.74,1.59,5.72.46,1.59-.46,3.25-2.05,3.71-.28.08-.56.12-.83.12Z"/>
      </g>
      <g>
        <ellipse class="cls-2" cx="163.22" cy="132.73" rx="38.88" ry="18.51" transform="translate(-31.77 53.74) rotate(-17.07)"/>
        <g class="cls-1">
          <ellipse class="cls-2" cx="139.82" cy="158.38" rx="24.82" ry="38.88" transform="translate(-49.92 65.46) rotate(-22.47)"/>
        </g>
        <path class="cls-2" d="m148.28,198.57c-5.14,0-10.59-1.9-15.9-5.61-7.6-5.32-14.09-13.82-18.28-23.94-4.19-10.12-5.6-20.72-3.97-29.86,1.71-9.62,6.57-16.54,13.67-19.48,14.18-5.86,32.89,6.73,41.72,28.07,4.19,10.12,5.6,20.72,3.97,29.86-1.71,9.62-6.57,16.54-13.67,19.48-2.4.99-4.93,1.48-7.54,1.48Zm-16.85-74.38c-1.84,0-3.63.34-5.33,1.04-5.15,2.13-8.72,7.45-10.06,14.98-1.43,8.02-.15,17.44,3.61,26.51s9.5,16.65,16.17,21.32c6.27,4.39,12.56,5.63,17.71,3.5,5.15-2.13,8.72-7.45,10.06-14.98,1.43-8.02.15-17.44-3.61-26.51-6.41-15.5-18.3-25.86-28.55-25.86Z"/>
        <ellipse class="cls-2" cx="160.79" cy="151.83" rx="18.51" ry="38.88" transform="translate(-31.36 261.3) rotate(-73.03)"/>
        <path class="cls-2" d="m176.27,175.86c-6.78,0-14.27-1.18-21.76-3.46-10.35-3.16-19.54-8.08-25.86-13.87-6.91-6.31-9.72-13.03-7.92-18.93,1.8-5.9,7.89-9.9,17.14-11.28,8.48-1.26,18.85-.22,29.2,2.94h0c22.46,6.85,37.3,21.26,33.78,32.8-1.8,5.9-7.89,9.9-17.14,11.29-2.35.35-4.84.52-7.44.52Zm-30.92-42.07c-2.31,0-4.51.15-6.59.46-6.74,1-11.22,3.59-12.29,7.1-1.07,3.51,1.2,8.16,6.23,12.75,5.68,5.19,14.05,9.65,23.57,12.56,9.52,2.9,18.95,3.88,26.56,2.74,6.74-1,11.22-3.59,12.29-7.1,2.14-7.02-9.57-19.14-29.79-25.31-6.92-2.11-13.81-3.2-19.97-3.2Z"/>
      </g>
      <path class="cls-2" d="m148.45,198.52c-12.75,0-26.98-11.71-34.34-29.51-4.19-10.12-5.6-20.72-3.97-29.86,1.71-9.62,6.57-16.54,13.67-19.48,4.81-1.99,10.25-1.95,15.82.1,5.1-3.07,11.04-5.69,17.27-7.6,22.45-6.89,42.81-3.26,46.35,8.27,2.22,7.24-2.46,15.55-12.61,22.74,8.4,6.74,12.19,14.35,10.2,20.87-2.68,8.77-14.71,13.14-31.04,11.47-1.32,10.49-6.42,18.43-13.98,21.56-2.35.97-4.83,1.44-7.37,1.44Zm-17.14-74.31c-1.83,0-3.58.33-5.2,1-5.15,2.13-8.72,7.45-10.06,14.99-1.43,8.02-.15,17.44,3.61,26.51,7.56,18.28,22.76,29.42,33.88,24.82,6.12-2.53,10.07-9.83,10.57-19.53l.17-3.29,3.26.47c14.14,2.05,25.74-.86,27.59-6.89,1.42-4.65-2.95-11.08-11.39-16.77l-3.89-2.62,4.01-2.43c9.88-5.99,15.25-13.16,13.68-18.27-2.15-7.01-18.64-10.5-38.85-4.3-6.27,1.93-12.19,4.6-17.13,7.74l-1.34.85-1.46-.63c-2.57-1.1-5.07-1.66-7.43-1.66Z"/>
    </g>
  </g>
</svg>